<svg width="24" height="24" viewBox="0 0 40 40" fill="none" xmlns="http://www.w3.org/2000/svg">
  <path d="M39.9061 20.0882C39.8622 31.1355 30.8745 40.0439 19.8652 39.9998C8.85594 39.9557 -0.0437872 30.9591 0.000162077 19.9118C0.0441114 8.86448 9.03174 -0.043938 20.041 0.000163037C31.0723 0.0442641 39.9501 9.04088 39.9061 20.0882Z" fill="#221F1F"/>
  <path d="M27.1393 29.9007C25.0297 33.6934 22.4148 36.8026 19.4921 36.7364C17.6682 36.6923 15.9322 36.0087 14.3501 34.9283C14.8555 34.0021 18.0418 29.3715 27.1393 29.9007ZM39.3792 20.0883C39.3352 30.8269 30.5893 39.5148 19.8657 39.4486C9.14207 39.4045 0.528015 30.6505 0.528015 19.9119C0.528015 12.9439 4.00001 7.93841 7.2962 5.24824C11.3395 1.96271 14.0864 4.47647 15.0533 6.39487C14.9434 5.579 14.6138 3.24164 13.7128 1.5658C15.6905 0.882233 17.8221 0.507374 20.0415 0.529424C30.7651 0.595576 39.4231 9.32759 39.3792 20.0883ZM18.9208 8.88658C21.7335 6.96818 26.5899 5.90976 29.161 9.92295C27.6008 0.74993 20.8546 6.02001 18.9208 8.88658ZM15.0093 17.5524C15.6026 16.8909 16.2838 16.2294 17.0749 15.634C20.5909 12.9218 24.4364 12.2383 25.689 14.1346C26.1724 14.8623 26.1944 15.8766 25.8208 16.9791C27.0734 14.9064 27.4689 12.988 26.6998 11.9296C25.4033 10.1655 21.3819 11.3783 17.7122 14.6418C16.6354 15.5458 15.7345 16.5602 15.0093 17.5524ZM8.87838 19.1842C10.6583 19.5149 12.5921 17.2437 13.1854 14.0685C13.7787 10.8932 12.8338 8.07071 11.0539 7.7179C9.27392 7.38714 7.34015 9.65835 6.74684 12.8336C6.15352 15.9869 7.09843 18.8314 8.87838 19.1842ZM33.6218 15.3474C16.5915 26.7916 4.83504 20.9923 4.83504 20.9923C4.65925 24.9614 11.4494 37.1554 19.5361 37.3097C27.6447 37.4641 33.6218 15.3474 33.6218 15.3474ZM7.23028 12.8998C7.77965 9.98911 9.44972 7.87225 10.966 8.18096C12.4822 8.46762 13.2733 11.0696 12.7459 13.9803C12.1965 16.8909 10.5265 19.0078 9.01023 18.6991C7.472 18.4124 6.68092 15.8104 7.23028 12.8998ZM10.4606 15.3694C11.1418 15.5238 11.8889 14.6859 12.1526 13.5172C12.4163 12.3485 12.0647 11.268 11.3835 11.1357C10.922 11.0255 10.4386 11.3783 10.087 11.9737C10.3946 12.128 10.5485 12.5249 10.3946 12.8557C10.2628 13.1644 9.95514 13.3187 9.64749 13.2526C9.51564 14.289 9.84526 15.2151 10.4606 15.3694Z" fill="#05BC52"/>
</svg>
